<svg width="33" height="33" viewBox="0 0 33 33" fill="none" xmlns="http://www.w3.org/2000/svg">
<g clip-path="url(#clip0_408_103)">
<path d="M21.1723 13.1875C21.3707 13.0096 21.6346 12.9112 21.9085 12.9131C22.1823 12.9151 22.4447 13.0172 22.6401 13.198C22.8356 13.3788 22.9489 13.6241 22.9562 13.8822C22.9634 14.1402 22.864 14.3908 22.6789 14.5811L17.0608 21.2037C16.9642 21.3017 16.8476 21.3804 16.718 21.4351C16.5884 21.4897 16.4484 21.5191 16.3064 21.5216C16.1645 21.5241 16.0234 21.4996 15.8918 21.4495C15.7601 21.3994 15.6405 21.3248 15.5401 21.2302L11.8144 17.7185C11.7106 17.6274 11.6274 17.5175 11.5697 17.3954C11.512 17.2733 11.4809 17.1415 11.4784 17.0078C11.4759 16.8742 11.502 16.7414 11.5551 16.6175C11.6082 16.4935 11.6873 16.381 11.7876 16.2864C11.8879 16.1919 12.0073 16.1174 12.1388 16.0673C12.2703 16.0173 12.4111 15.9927 12.5529 15.9951C12.6947 15.9974 12.8346 16.0267 12.9641 16.0811C13.0937 16.1355 13.2102 16.2139 13.3069 16.3117L16.2554 19.0895L21.1456 13.2167C21.1544 13.2065 21.1638 13.1968 21.1737 13.1875H21.1723Z" fill="#BDC741"/>
<path d="M17.2173 26.0055C14.8866 26.0055 12.6513 25.0796 11.0032 23.4315C9.35514 21.7834 8.42926 19.5482 8.42926 17.2174C8.42926 14.8867 9.35514 12.6514 11.0032 11.0033C12.6513 9.35527 14.8866 8.42938 17.2173 8.42938C19.548 8.42938 21.7833 9.35527 23.4314 11.0033C25.0795 12.6514 26.0053 14.8867 26.0053 17.2174C26.0053 19.5482 25.0795 21.7834 23.4314 23.4315C21.7833 25.0796 19.548 26.0055 17.2173 26.0055ZM17.2173 27.2609C19.881 27.2609 22.4356 26.2028 24.3191 24.3192C26.2026 22.4357 27.2608 19.8811 27.2608 17.2174C27.2608 14.5537 26.2026 11.9991 24.3191 10.1156C22.4356 8.2321 19.881 7.17395 17.2173 7.17395C14.5536 7.17395 11.999 8.2321 10.1155 10.1156C8.23198 11.9991 7.17383 14.5537 7.17383 17.2174C7.17383 19.8811 8.23198 22.4357 10.1155 24.3192C11.999 26.2028 14.5536 27.2609 17.2173 27.2609V27.2609Z" fill="#BDC741"/>
</g>
<defs>
<clipPath id="clip0_408_103">
<rect width="33" height="33" fill="white"/>
</clipPath>
</defs>
</svg>
