<svg width="33" height="33" viewBox="0 0 33 33" fill="none" xmlns="http://www.w3.org/2000/svg">
<g clip-path="url(#clip0_408_53)">
<path d="M17.2173 26.0055C14.8866 26.0055 12.6513 25.0796 11.0032 23.4315C9.35514 21.7834 8.42926 19.5482 8.42926 17.2174C8.42926 14.8867 9.35514 12.6514 11.0032 11.0033C12.6513 9.35527 14.8866 8.42938 17.2173 8.42938C19.548 8.42938 21.7833 9.35527 23.4314 11.0033C25.0795 12.6514 26.0053 14.8867 26.0053 17.2174C26.0053 19.5482 25.0795 21.7834 23.4314 23.4315C21.7833 25.0796 19.548 26.0055 17.2173 26.0055ZM17.2173 27.2609C19.881 27.2609 22.4356 26.2028 24.3191 24.3192C26.2026 22.4357 27.2608 19.8811 27.2608 17.2174C27.2608 14.5537 26.2026 11.9991 24.3191 10.1156C22.4356 8.2321 19.881 7.17395 17.2173 7.17395C14.5536 7.17395 11.999 8.2321 10.1155 10.1156C8.23198 11.9991 7.17383 14.5537 7.17383 17.2174C7.17383 19.8811 8.23198 22.4357 10.1155 24.3192C11.999 26.2028 14.5536 27.2609 17.2173 27.2609V27.2609Z" fill="#BDC741"/>
<path d="M13.9892 18.1236C13.9892 18.6472 14.0833 19.1429 14.2716 19.6109C14.46 20.0793 14.729 20.4897 15.0787 20.8421C15.0697 20.7918 15.0653 20.7465 15.0653 20.7062V20.5703C15.0653 20.2481 15.1191 19.946 15.2267 19.6641C15.3343 19.3822 15.4912 19.1254 15.6975 18.8938L17.2174 17.2174L18.7374 18.8938C18.9437 19.1254 19.1006 19.3822 19.2082 19.6641C19.3158 19.946 19.3696 20.2481 19.3696 20.5703V20.7062C19.3696 20.7465 19.3651 20.7918 19.3562 20.8421C19.7059 20.4897 19.9749 20.0793 20.1632 19.6109C20.3515 19.1429 20.4457 18.6472 20.4457 18.1236C20.4457 17.6201 20.3628 17.1443 20.1971 16.696C20.031 16.2482 19.7911 15.8481 19.4772 15.4957C19.2979 15.6266 19.1096 15.7246 18.9123 15.7899C18.715 15.8555 18.5132 15.8883 18.307 15.8883C17.751 15.8883 17.2691 15.6819 16.8612 15.2691C16.4531 14.8563 16.2176 14.3478 16.1548 13.7437C15.8051 14.076 15.4957 14.4207 15.2267 14.778C14.9577 15.1356 14.7313 15.4981 14.5477 15.8654C14.3637 16.2331 14.2247 16.6082 14.1307 16.9909C14.0363 17.3735 13.9892 17.751 13.9892 18.1236ZM17.2174 18.9089L16.4507 19.7547C16.3521 19.8655 16.2759 19.9913 16.2221 20.1323C16.1682 20.2732 16.1413 20.4192 16.1413 20.5703C16.1413 20.8925 16.2468 21.1693 16.4577 21.4009C16.6683 21.6325 16.9215 21.7483 17.2174 21.7483C17.5134 21.7483 17.7668 21.6325 17.9777 21.4009C18.1882 21.1693 18.2935 20.8925 18.2935 20.5703C18.2935 20.4092 18.2666 20.2606 18.2128 20.1244C18.159 19.9887 18.0828 19.8655 17.9841 19.7547L17.2174 18.9089ZM17.2174 11.4783V13.4719C17.2174 13.8142 17.3229 14.1012 17.5338 14.3327C17.7444 14.5643 18.0021 14.6801 18.307 14.6801C18.4684 14.6801 18.6187 14.6424 18.7579 14.5671C18.8967 14.4914 19.0199 14.378 19.1275 14.227L19.3696 13.8947C20.0332 14.3176 20.5578 14.9066 20.9434 15.6618C21.329 16.4169 21.5218 17.2375 21.5218 18.1236C21.5218 19.4728 21.1048 20.6156 20.2708 21.552C19.4369 22.4883 18.4191 22.9565 17.2174 22.9565C16.0158 22.9565 14.998 22.4883 14.164 21.552C13.3301 20.6156 12.9131 19.4728 12.9131 18.1236C12.9131 16.8247 13.301 15.5913 14.0769 14.4234C14.8524 13.2554 15.8992 12.2737 17.2174 11.4783Z" fill="#BDC741"/>
</g>
<defs>
<clipPath id="clip0_408_53">
<rect width="33" height="33" fill="white"/>
</clipPath>
</defs>
</svg>
