<svg width="33" height="32" viewBox="0 0 33 32" fill="none" xmlns="http://www.w3.org/2000/svg">
<g clip-path="url(#clip0_416_163)">
<path d="M22.2453 11.1385C22.2391 11.1324 20.9922 12.3454 18.5108 14.7834L16.7697 13.0699L20.4795 9.41896C18.5272 8.26251 16.0191 8.55919 14.3928 10.1596C13.7712 10.7711 13.3238 11.5326 13.0956 12.3679C12.8674 13.2032 12.8664 14.0828 13.0926 14.9186L13.1295 15.0539L7.31558 20.7735C7.18843 20.8986 7.18843 21.1045 7.31558 21.2296L10.2154 24.0834C10.3425 24.2085 10.5517 24.2085 10.6789 24.0834L16.4887 18.3658L16.6261 18.4021C18.3426 18.8522 20.1863 18.3839 21.466 17.1246C23.0943 15.5241 23.3958 13.0558 22.2453 11.1385Z" fill="#BDC741"/>
<path d="M16.5 25.575C14.0633 25.575 11.7264 24.6223 10.0035 22.9267C8.28047 21.2311 7.3125 18.9313 7.3125 16.5333C7.3125 14.1353 8.28047 11.8355 10.0035 10.1399C11.7264 8.44422 14.0633 7.49162 16.5 7.49162C18.9367 7.49162 21.2736 8.44422 22.9965 10.1399C24.7195 11.8355 25.6875 14.1353 25.6875 16.5333C25.6875 18.9313 24.7195 21.2311 22.9965 22.9267C21.2736 24.6223 18.9367 25.575 16.5 25.575ZM16.5 26.8666C19.2848 26.8666 21.9555 25.7779 23.9246 23.8401C25.8938 21.9022 27 19.2739 27 16.5333C27 13.7927 25.8938 11.1644 23.9246 9.22651C21.9555 7.28864 19.2848 6.19995 16.5 6.19995C13.7152 6.19995 11.0445 7.28864 9.07538 9.22651C7.10625 11.1644 6 13.7927 6 16.5333C6 19.2739 7.10625 21.9022 9.07538 23.8401C11.0445 25.7779 13.7152 26.8666 16.5 26.8666V26.8666Z" fill="#BDC741"/>
</g>
<defs>
<clipPath id="clip0_416_163">
<rect width="21" height="20.6667" fill="white" transform="translate(6 6.19995)"/>
</clipPath>
</defs>
</svg>
